<svg fill="#000000" xmlns="http://www.w3.org/2000/svg" viewBox="0 0 30 30" width="30px" height="30px">
    <path
        d="M 15 3 C 8.373 3 3 8.373 3 15 C 3 21.627 8.373 27 15 27 C 21.627 27 27 21.627 27 15 C 27 8.373 21.627 3 15 3 z M 15 5 C 20.523 5 25 9.477 25 15 C 25 20.523 20.523 25 15 25 C 9.477 25 5 20.523 5 15 C 5 9.477 9.477 5 15 5 z M 14 10 C 13.744 10 13.487969 10.097969 13.292969 10.292969 L 9.2929688 14.292969 C 8.9019687 14.683969 8.9019687 15.316031 9.2929688 15.707031 L 13.292969 19.707031 C 13.683969 20.098031 14.316031 20.098031 14.707031 19.707031 C 15.098031 19.316031 15.098031 18.683969 14.707031 18.292969 L 12.414062 16 L 20 16 C 20.552 16 21 15.553 21 15 C 21 14.447 20.552 14 20 14 L 12.414062 14 L 14.707031 11.707031 C 15.098031 11.316031 15.098031 10.683969 14.707031 10.292969 C 14.512031 10.097969 14.256 10 14 10 z"/>
</svg>
