<svg xmlns="http://www.w3.org/2000/svg" viewBox="0 0 24 24">
    <path
        d="M 6 6 C 4.3550302 6 3 7.3550302 3 9 L 3 15 C 3 16.64497 4.3550302 18 6 18 L 8 18 C 9.6449698 18 11 16.64497 11 15 L 11 9 C 11 7.3550302 9.6449698 6 8 6 L 6 6 z M 13 6 L 13 18 L 15 18 L 15 13.332031 L 18.501953 18 L 21 18 L 16.5 12 L 21 6 L 18.501953 6 L 15 10.667969 L 15 6 L 13 6 z M 6 8 L 8 8 C 8.5650302 8 9 8.4349698 9 9 L 9 15 C 9 15.56503 8.5650302 16 8 16 L 6 16 C 5.4349698 16 5 15.56503 5 15 L 5 9 C 5 8.4349698 5.4349698 8 6 8 z"/>
</svg>
