<svg xmlns="http://www.w3.org/2000/svg" viewBox="0 0 30 30">
    <path
        d="M 15 3 C 13.895 3 13 3.895 13 5 L 13 5.2929688 C 10.109011 6.1538292 8 8.8293311 8 12 L 8 14.757812 C 8 17.474812 6.921 20.079 5 22 A 1 1 0 0 0 4 23 A 1 1 0 0 0 5 24 L 25 24 A 1 1 0 0 0 26 23 A 1 1 0 0 0 25 22 C 23.079 20.079 22 17.474812 22 14.757812 L 22 12 C 22 8.8293311 19.890989 6.1538292 17 5.2929688 L 17 5 C 17 3.895 16.105 3 15 3 z M 3.9550781 7.9882812 A 1.0001 1.0001 0 0 0 3.1054688 8.5527344 C 3.1054688 8.5527344 2 10.666667 2 13 C 2 15.333333 3.1054687 17.447266 3.1054688 17.447266 A 1.0001165 1.0001165 0 0 0 4.8945312 16.552734 C 4.8945312 16.552734 4 14.666667 4 13 C 4 11.333333 4.8945313 9.4472656 4.8945312 9.4472656 A 1.0001 1.0001 0 0 0 3.9550781 7.9882812 z M 26.015625 7.9882812 A 1.0001 1.0001 0 0 0 25.105469 9.4472656 C 25.105469 9.4472656 26 11.333333 26 13 C 26 14.666667 25.105469 16.552734 25.105469 16.552734 A 1.0001163 1.0001163 0 1 0 26.894531 17.447266 C 26.894531 17.447266 28 15.333333 28 13 C 28 10.666667 26.894531 8.5527344 26.894531 8.5527344 A 1.0001 1.0001 0 0 0 26.015625 7.9882812 z M 12 26 C 12 27.657 13.343 29 15 29 C 16.657 29 18 27.657 18 26 L 12 26 z"/>
</svg>
