<svg xmlns="http://www.w3.org/2000/svg" viewBox="0 0 30 30">
    <path
        d="M 22 2.0058594 C 20.46244 2.0058594 18.9253 2.5903249 17.757812 3.7578125 L 15.757812 5.7578125 C 14.050019 7.4656071 13.601093 9.9558074 14.394531 12.082031 A 1.0001 1.0001 0 1 0 16.267578 11.382812 C 15.737017 9.961037 16.02567 8.3180804 17.171875 7.171875 L 19.171875 5.171875 C 20.7429 3.6008502 23.2571 3.6008502 24.828125 5.171875 C 26.39915 6.7428998 26.39915 9.2571002 24.828125 10.828125 L 22.828125 12.828125 C 21.68192 13.97433 20.03701 14.26103 18.615234 13.730469 A 1.0005662 1.0005662 0 1 0 17.916016 15.605469 C 20.04224 16.398907 22.534392 15.949981 24.242188 14.242188 L 26.242188 12.242188 C 28.577163 9.9072118 28.577163 6.0927877 26.242188 3.7578125 C 25.074699 2.5903249 23.53756 2.0058594 22 2.0058594 z M 10.984375 3.9863281 A 1.0001 1.0001 0 0 0 10 5 L 10 8 A 1.0001 1.0001 0 1 0 12 8 L 12 5 A 1.0001 1.0001 0 0 0 10.984375 3.9863281 z M 5 10 A 1.0001 1.0001 0 1 0 5 12 L 8 12 A 1.0001 1.0001 0 1 0 8 10 L 5 10 z M 9.5976562 14.027344 C 9.317768 14.044963 9.0392166 14.082071 8.7636719 14.138672 C 7.661493 14.365074 6.6117098 14.903916 5.7578125 15.757812 L 3.7578125 17.757812 C 1.4228373 20.092789 1.4228373 23.907212 3.7578125 26.242188 C 6.0927877 28.577163 9.9072118 28.577163 12.242188 26.242188 L 14.242188 24.242188 C 15.949981 22.534392 16.398907 20.044193 15.605469 17.917969 A 1.0001 1.0001 0 1 0 13.732422 18.617188 C 14.262983 20.038963 13.97433 21.68192 12.828125 22.828125 L 10.828125 24.828125 C 9.2571002 26.39915 6.7428998 26.39915 5.171875 24.828125 C 3.6008502 23.2571 3.6008502 20.7429 5.171875 19.171875 L 7.171875 17.171875 C 8.3180804 16.02567 9.9629892 15.73897 11.384766 16.269531 A 1.0005662 1.0005662 0 1 0 12.083984 14.394531 C 11.28665 14.096992 10.437321 13.974485 9.5976562 14.027344 z M 22 18 A 1.0001 1.0001 0 1 0 22 20 L 25 20 A 1.0001 1.0001 0 1 0 25 18 L 22 18 z M 18.984375 20.986328 A 1.0001 1.0001 0 0 0 18 22 L 18 25 A 1.0001 1.0001 0 1 0 20 25 L 20 22 A 1.0001 1.0001 0 0 0 18.984375 20.986328 z"/>
</svg>
