<svg xmlns="http://www.w3.org/2000/svg" viewBox="0 0 30 30">
    <path
        d="M25.983,13.342C25.988,13.228,26,13.116,26,13c0-4.418-3.582-8-8-8c-3.11,0-5.8,1.779-7.123,4.371C10.296,9.136,9.665,9,9,9 c-2.53,0-4.599,1.885-4.932,4.324C1.703,14.129,0,16.363,0,19c0,3.314,2.686,6,6,6h18c3.314,0,6-2.686,6-6 C30,16.382,28.321,14.162,25.983,13.342z M18.721,19.372c0.372,0.372,0.373,0.976,0,1.349c-0.373,0.373-0.976,0.372-1.349,0 L15,18.349l-2.372,2.372c-0.373,0.373-0.976,0.372-1.349,0c-0.372-0.372-0.373-0.976,0-1.349L13.651,17l-2.372-2.372 c-0.372-0.372-0.373-0.976,0-1.349s0.976-0.372,1.349,0L15,15.651l2.372-2.372c0.373-0.373,0.976-0.372,1.349,0 c0.372,0.372,0.373,0.976,0,1.349L16.349,17L18.721,19.372z"/>
</svg>
