<svg xmlns="http://www.w3.org/2000/svg" viewBox="0 0 30 30">
    <path
        d="M 26.980469 1.9902344 A 1.0001 1.0001 0 0 0 26.292969 2.2929688 L 22.289062 6.296875 L 19.650391 3.6582031 C 18.771391 2.7802031 17.348703 2.7802031 16.470703 3.6582031 L 11.771484 8.3574219 L 11.707031 8.2929688 A 1.0001 1.0001 0 0 0 10.990234 7.9902344 A 1.0001 1.0001 0 0 0 10.292969 9.7070312 L 20.292969 19.707031 A 1.0001 1.0001 0 1 0 21.707031 18.292969 L 21.642578 18.228516 L 26.341797 13.53125 C 27.219797 12.65225 27.219797 11.227609 26.341797 10.349609 L 23.703125 7.7109375 L 27.707031 3.7070312 A 1.0001 1.0001 0 0 0 26.980469 1.9902344 z M 7.9902344 10.990234 A 1.0001 1.0001 0 0 0 7.2929688 12.707031 L 7.3574219 12.771484 L 3.6582031 16.46875 C 2.7802031 17.34775 2.7802031 18.772391 3.6582031 19.650391 L 6.296875 22.289062 L 2.2929688 26.292969 A 1.0001 1.0001 0 1 0 3.7070312 27.707031 L 7.7109375 23.703125 L 10.349609 26.339844 C 11.228609 27.217844 12.651297 27.217844 13.529297 26.339844 L 17.228516 22.642578 L 17.292969 22.707031 A 1.0001 1.0001 0 1 0 18.707031 21.292969 L 8.7070312 11.292969 A 1.0001 1.0001 0 0 0 7.9902344 10.990234 z"/>
</svg>
