<svg xmlns="http://www.w3.org/2000/svg" viewBox="0 0 30 30">
    <path
        d="M 26.980469 1.9902344 A 1.0001 1.0001 0 0 0 26.292969 2.2929688 L 23.289062 5.296875 L 20.650391 2.6582031 C 19.771391 1.7802031 18.348703 1.7802031 17.470703 2.6582031 L 13.771484 6.3574219 L 13.707031 6.2929688 A 1.0001 1.0001 0 0 0 12.990234 5.9902344 A 1.0001 1.0001 0 0 0 12.292969 7.7070312 L 13.585938 9 L 11.292969 11.292969 A 1.0001 1.0001 0 1 0 12.707031 12.707031 L 15 10.414062 L 19.585938 15 L 17.292969 17.292969 A 1.0001 1.0001 0 1 0 18.707031 18.707031 L 21 16.414062 L 22.292969 17.707031 A 1.0001 1.0001 0 1 0 23.707031 16.292969 L 23.642578 16.228516 L 27.341797 12.53125 C 28.219797 11.65225 28.219797 10.227609 27.341797 9.3496094 L 24.703125 6.7109375 L 27.707031 3.7070312 A 1.0001 1.0001 0 0 0 26.980469 1.9902344 z M 6.9902344 11.990234 A 1.0001 1.0001 0 0 0 6.2929688 13.707031 L 6.3574219 13.771484 L 2.6582031 17.46875 C 1.7802031 18.34775 1.7802031 19.772391 2.6582031 20.650391 L 5.296875 23.289062 L 2.2929688 26.292969 A 1.0001 1.0001 0 1 0 3.7070312 27.707031 L 6.7109375 24.703125 L 9.3496094 27.339844 C 10.228609 28.217844 11.651297 28.217844 12.529297 27.339844 L 16.228516 23.642578 L 16.292969 23.707031 A 1.0001 1.0001 0 1 0 17.707031 22.292969 L 7.7070312 12.292969 A 1.0001 1.0001 0 0 0 6.9902344 11.990234 z"/>
</svg>
