<svg xmlns="http://www.w3.org/2000/svg" viewBox="0 0 30 30">
    <path
        d="M 21 4 A 1.0001 1.0001 0 0 0 20 5 L 20 25 A 1.0001 1.0001 0 0 0 21 26 L 25 26 A 1.0001 1.0001 0 0 0 26 25 L 26 5 A 1.0001 1.0001 0 0 0 25 4 L 21 4 z M 22 6 L 24 6 L 24 24 L 22 24 L 22 6 z M 13 10 A 1.0001 1.0001 0 0 0 12 11 L 12 25 A 1.0001 1.0001 0 0 0 13 26 L 17 26 A 1.0001 1.0001 0 0 0 18 25 L 18 11 A 1.0001 1.0001 0 0 0 17 10 L 13 10 z M 14 12 L 16 12 L 16 24 L 14 24 L 14 12 z M 5 16 C 4.448 16 4 16.448 4 17 L 4 25 C 4 25.552 4.448 26 5 26 L 9 26 C 9.552 26 10 25.552 10 25 L 10 17 C 10 16.448 9.552 16 9 16 L 5 16 z"/>
</svg>
