<svg xmlns="http://www.w3.org/2000/svg" viewBox="0 0 30 30">
    <path
        d="M 18.984375 -0.013671875 A 1.0001 1.0001 0 0 0 18 1 L 18 2 L 17 2 A 1.0001 1.0001 0 1 0 17 4 L 18 4 L 18 5 A 1.0001 1.0001 0 1 0 20 5 L 20 4 L 21 4 A 1.0001 1.0001 0 1 0 21 2 L 20 2 L 20 1 A 1.0001 1.0001 0 0 0 18.984375 -0.013671875 z M 12.390625 3.2929688 C 7.019625 4.4859687 3 9.27 3 15 C 3 21.627 8.373 27 15 27 C 20.73 27 25.514031 22.980375 26.707031 17.609375 C 25.171031 18.489375 23.397 19 21.5 19 C 15.701 19 11 14.299 11 8.5 C 11 6.603 11.510625 4.8289688 12.390625 3.2929688 z M 25 7 C 24.448 7 24 7.448 24 8 L 24 9 C 24 9.552 23.552 10 23 10 L 22 10 C 21.448 10 21 10.448 21 11 C 21 11.552 21.448 12 22 12 L 23 12 C 23.552 12 24 12.448 24 13 L 24 14 C 24 14.552 24.448 15 25 15 C 25.552 15 26 14.552 26 14 L 26 13 C 26 12.448 26.448 12 27 12 L 28 12 C 28.552 12 29 11.552 29 11 C 29 10.448 28.552 10 28 10 L 27 10 C 26.448 10 26 9.552 26 9 L 26 8 C 26 7.448 25.552 7 25 7 z"/>
</svg>
