<svg xmlns="http://www.w3.org/2000/svg" viewBox="0 0 30 30">
    <path
        d="M 15 3 C 9.477 3 5 7.3963594 5 12.818359 C 5 13.21777 5.1041992 14.662513 5.3515625 16.226562 C 4.9931273 16.439999 4.3093092 16.912177 3.6894531 17.767578 C 2.811052 18.979776 2 20.965175 2 24 A 1.0001 1.0001 0 1 0 4 24 C 4 21.761278 4.4805108 20.366381 5 19.457031 L 5 26 A 1.0001 1.0001 0 1 0 7 26 L 7 21.269531 C 8.7509862 24.39007 11.956681 27 15 27 C 18.65 27 22.541234 23.249328 23.865234 19.361328 C 23.873234 19.361328 23.880672 19.363281 23.888672 19.363281 C 24.759672 17.139281 25 13.495359 25 12.818359 C 25 7.3963594 20.523 3 15 3 z M 15 11 C 15 11 22 11.077 22 15 C 22 17.055 20 17 19.5 17 C 17 17 17 16 15 16 C 13 16 13 17 10.5 17 C 10.319 17 8 17 8 15 C 8 11.077 15 11 15 11 z M 12 13 A 1 1 0 0 0 11 14 A 1 1 0 0 0 12 15 A 1 1 0 0 0 13 14 A 1 1 0 0 0 12 13 z M 18 13 A 1 1 0 0 0 17 14 A 1 1 0 0 0 18 15 A 1 1 0 0 0 19 14 A 1 1 0 0 0 18 13 z"/>
</svg>
