<svg xmlns="http://www.w3.org/2000/svg" viewBox="0 0 30 30">
    <path
        d="M15,3C8.373,3,3,8.373,3,15c0,6.627,5.373,12,12,12h1c1.657,0,3-1.343,3-3c0,0,0-2.262,0-3c0-1.105,0.895-2,2-2 c0.738,0,4,0,4,0c1.105,0,2-0.895,2-2c0,0,0-1.375,0-2C27,8.373,21.627,3,15,3z M15,5c1.105,0,2,0.895,2,2c0,1.105-0.895,2-2,2 s-2-0.895-2-2C13,5.895,13.895,5,15,5z M7,17c-1.105,0-2-0.895-2-2c0-1.105,0.895-2,2-2s2,0.895,2,2C9,16.105,8.105,17,7,17z M14.5,25c-1.381,0-2.5-1.119-2.5-2.5c0-1.381,1.119-2.5,2.5-2.5s2.5,1.119,2.5,2.5C17,23.881,15.881,25,14.5,25z M23,17 c-1.105,0-2-0.895-2-2c0-1.105,0.895-2,2-2s2,0.895,2,2C25,16.105,24.105,17,23,17z M22.071,10.757 c-0.781,0.781-2.047,0.781-2.828,0c-0.781-0.781-0.781-2.047,0-2.828c0.781-0.781,2.047-0.781,2.828,0 C22.852,8.71,22.852,9.976,22.071,10.757z M7.929,10.757c-0.781-0.781-0.781-2.047,0-2.828c0.781-0.781,2.047-0.781,2.828,0 s0.781,2.047,0,2.828C9.976,11.538,8.71,11.538,7.929,10.757z"/>
</svg>
