<svg xmlns="http://www.w3.org/2000/svg" viewBox="0 0 30 30">
    <path
        d="M 19.292969 4 L 12.640625 4.035156 C 12.640625 4.035156 13.324219 4.167969 13.820312 5.046875 L 16.609375 9.984375 L 14.730469 11.046875 L 21.1875 11.992188 L 23.574219 6.050781 L 21.832031 7.03125 L 20.574219 4.800781 C 20.324219 4.363281 19.90625 4.027344 19.292969 4 Z M 10.160156 5.003906 C 9.300781 4.9375 8.304688 5.226562 7.558594 6.242188 L 7.472656 6.335938 L 6.667969 7.675781 L 11.816406 10.714844 L 13.3125 8.242188 L 11.984375 5.867188 C 11.757812 5.484375 11.023438 5.070312 10.160156 5.003906 Z M 9.070312 11.3125 L 2.742188 12.277344 L 4.472656 13.277344 L 3.191406 15.496094 C 2.941406 15.933594 2.867188 16.464844 3.152344 17.007812 L 6.566406 22.71875 C 6.566406 22.71875 6.332031 22.0625 6.835938 21.1875 L 9.667969 16.277344 L 11.539062 17.355469 Z M 25.535156 11.890625 L 20.582031 14.757812 L 22.4375 18 L 24.855469 18 C 25.75 17.980469 27.742188 16.261719 26.710938 13.960938 L 26.671875 13.84375 Z M 19 17.84375 L 15 23 L 19 28 L 19 26 L 21.5625 26 C 22.070312 26 22.566406 25.800781 22.890625 25.28125 L 26.128906 19.46875 C 26.128906 19.46875 25.679688 20 24.667969 20 L 19 20 Z M 9.847656 20 L 8.476562 22.347656 C 8.042969 23.136719 8.535156 25.71875 11.046875 25.972656 L 11.167969 26 L 13 25.980469 L 13 20 Z M 9.847656 20 "/>
</svg>

