<svg xmlns="http://www.w3.org/2000/svg" viewBox="0 0 30 30">
    <path
        d="M 15 3 C 10.398 3 5.6113281 4.0371094 5.6113281 4.0371094 L 5.6074219 4.0410156 A 2 2 0 0 0 4 6 L 4 12 C 4 22.398 14.021484 26.744141 14.021484 26.744141 A 2 2 0 0 0 15 27 A 2 2 0 0 0 15.974609 26.744141 L 15.978516 26.744141 C 15.979516 26.744141 26 22.398 26 12 L 26 6 A 2 2 0 0 0 24.388672 4.0371094 C 24.388672 4.0371094 19.602 3 15 3 z M 15 7 C 18.309 7 21 9.691 21 13 L 23 13 L 20 16 L 17 13 L 19 13 C 19 10.794 17.206 9 15 9 C 12.794 9 11 10.794 11 13 C 11 15.206 12.794 17 15 17 C 15.553 17 16 17.447 16 18 C 16 18.553 15.553 19 15 19 C 11.691 19 9 16.309 9 13 C 9 9.691 11.691 7 15 7 z"/>
</svg>
