<svg xmlns="http://www.w3.org/2000/svg" viewBox="0 0 30 30">
    <path
        d="M 8 5.5 C 7.172 5.5 6.5 6.172 6.5 7 L 6.5 22 C 6.5 22.828 7.172 23.5 8 23.5 C 8.828 23.5 9.5 22.828 9.5 22 L 9.5 7 C 9.5 6.172 8.828 5.5 8 5.5 z M 13.5 5.5 A 1 1 0 0 0 12.5 6.5 A 1 1 0 0 0 12.5 6.5039062 L 12.5 14.5 L 12.5 22.496094 A 1 1 0 0 0 12.5 22.5 A 1 1 0 0 0 13.5 23.5 A 1 1 0 0 0 14.091797 23.304688 L 14.09375 23.304688 A 1 1 0 0 0 14.121094 23.283203 L 25.041016 15.341797 A 1 1 0 0 0 25.5 14.5 A 1 1 0 0 0 25.056641 13.669922 L 14.09375 5.6953125 A 1 1 0 0 0 13.5 5.5 z"/>
</svg>
