<svg xmlns="http://www.w3.org/2000/svg" viewBox="0 0 30 30">
    <path
        d="M 15 2 C 14.448 2 14 2.448 14 3 L 14 3.171875 C 14 3.649875 13.663406 4.0763437 13.191406 4.1523438 C 12.962406 4.1893437 12.735719 4.2322031 12.511719 4.2832031 C 12.047719 4.3892031 11.578484 4.1265 11.396484 3.6875 L 11.330078 3.53125 C 11.119078 3.02125 10.534437 2.7782344 10.023438 2.9902344 C 9.5134375 3.2012344 9.2704219 3.785875 9.4824219 4.296875 L 9.5488281 4.4570312 C 9.7328281 4.8970313 9.5856875 5.4179219 9.1796875 5.6699219 C 8.9836875 5.7919219 8.7924688 5.9197344 8.6054688 6.0527344 C 8.2174688 6.3297344 7.68075 6.2666875 7.34375 5.9296875 L 7.2226562 5.8085938 C 6.8316562 5.4175937 6.1985937 5.4175938 5.8085938 5.8085938 C 5.4185938 6.1995938 5.4185938 6.8326563 5.8085938 7.2226562 L 5.9296875 7.34375 C 6.2666875 7.68075 6.3297344 8.2164688 6.0527344 8.6054688 C 5.9197344 8.7924687 5.7919219 8.9836875 5.6699219 9.1796875 C 5.4179219 9.5856875 4.8960781 9.7337812 4.4550781 9.5507812 L 4.296875 9.484375 C 3.786875 9.273375 3.2002813 9.5153906 2.9882812 10.025391 C 2.7772813 10.535391 3.0192969 11.120031 3.5292969 11.332031 L 3.6855469 11.396484 C 4.1245469 11.578484 4.3892031 12.047719 4.2832031 12.511719 C 4.2322031 12.735719 4.1873906 12.962406 4.1503906 13.191406 C 4.0753906 13.662406 3.649875 14 3.171875 14 L 3 14 C 2.448 14 2 14.448 2 15 C 2 15.552 2.448 16 3 16 L 3.171875 16 C 3.649875 16 4.0763437 16.336594 4.1523438 16.808594 C 4.1893437 17.037594 4.2322031 17.264281 4.2832031 17.488281 C 4.3892031 17.952281 4.1265 18.421516 3.6875 18.603516 L 3.53125 18.669922 C 3.02125 18.880922 2.7782344 19.465563 2.9902344 19.976562 C 3.2012344 20.486563 3.785875 20.729578 4.296875 20.517578 L 4.4570312 20.451172 C 4.8980312 20.268172 5.418875 20.415312 5.671875 20.820312 C 5.793875 21.016313 5.9206875 21.208484 6.0546875 21.396484 C 6.3316875 21.784484 6.2686406 22.321203 5.9316406 22.658203 L 5.8085938 22.779297 C 5.4175937 23.170297 5.4175938 23.803359 5.8085938 24.193359 C 6.1995938 24.583359 6.8326562 24.584359 7.2226562 24.193359 L 7.3457031 24.072266 C 7.6827031 23.735266 8.2174688 23.670266 8.6054688 23.947266 C 8.7934688 24.081266 8.9856406 24.210031 9.1816406 24.332031 C 9.5866406 24.584031 9.7357344 25.105875 9.5527344 25.546875 L 9.4863281 25.705078 C 9.2753281 26.215078 9.5173438 26.801672 10.027344 27.013672 C 10.537344 27.224672 11.121984 26.982656 11.333984 26.472656 L 11.398438 26.316406 C 11.580438 25.877406 12.049672 25.61275 12.513672 25.71875 C 12.737672 25.76975 12.964359 25.814562 13.193359 25.851562 C 13.662359 25.924562 14 26.350125 14 26.828125 L 14 27 C 14 27.552 14.448 28 15 28 C 15.552 28 16 27.552 16 27 L 16 26.828125 C 16 26.350125 16.336594 25.923656 16.808594 25.847656 C 17.037594 25.810656 17.264281 25.767797 17.488281 25.716797 C 17.952281 25.610797 18.421516 25.8735 18.603516 26.3125 L 18.669922 26.46875 C 18.880922 26.97875 19.465563 27.221766 19.976562 27.009766 C 20.486563 26.798766 20.729578 26.214125 20.517578 25.703125 L 20.451172 25.542969 C 20.268172 25.101969 20.415312 24.581125 20.820312 24.328125 C 21.016313 24.206125 21.208484 24.079312 21.396484 23.945312 C 21.784484 23.668312 22.321203 23.731359 22.658203 24.068359 L 22.779297 24.191406 C 23.170297 24.582406 23.803359 24.582406 24.193359 24.191406 C 24.583359 23.800406 24.584359 23.167344 24.193359 22.777344 L 24.072266 22.654297 C 23.735266 22.317297 23.670266 21.782531 23.947266 21.394531 C 24.081266 21.206531 24.210031 21.014359 24.332031 20.818359 C 24.584031 20.413359 25.105875 20.264266 25.546875 20.447266 L 25.705078 20.513672 C 26.215078 20.724672 26.801672 20.482656 27.013672 19.972656 C 27.224672 19.462656 26.982656 18.878016 26.472656 18.666016 L 26.316406 18.601562 C 25.877406 18.419563 25.61275 17.950328 25.71875 17.486328 C 25.76975 17.262328 25.814562 17.035641 25.851562 16.806641 C 25.924562 16.337641 26.350125 16 26.828125 16 L 27 16 C 27.552 16 28 15.552 28 15 C 28 14.448 27.552 14 27 14 L 26.828125 14 C 26.350125 14 25.923656 13.663406 25.847656 13.191406 C 25.810656 12.962406 25.767797 12.735719 25.716797 12.511719 C 25.610797 12.047719 25.8735 11.578484 26.3125 11.396484 L 26.46875 11.330078 C 26.97875 11.119078 27.221766 10.534437 27.009766 10.023438 C 26.798766 9.5134375 26.214125 9.2704219 25.703125 9.4824219 L 25.542969 9.5488281 C 25.101969 9.7318281 24.581125 9.5846875 24.328125 9.1796875 C 24.206125 8.9836875 24.079312 8.7915156 23.945312 8.6035156 C 23.668312 8.2155156 23.731359 7.6787969 24.068359 7.3417969 L 24.191406 7.2207031 C 24.582406 6.8297031 24.582406 6.1966406 24.191406 5.8066406 C 23.800406 5.4156406 23.167344 5.4156406 22.777344 5.8066406 L 22.65625 5.9296875 C 22.31925 6.2666875 21.782531 6.3316875 21.394531 6.0546875 C 21.206531 5.9206875 21.014359 5.7919219 20.818359 5.6699219 C 20.413359 5.4179219 20.266219 4.8960781 20.449219 4.4550781 L 20.515625 4.296875 C 20.726625 3.786875 20.484609 3.2002812 19.974609 2.9882812 C 19.464609 2.7772813 18.879969 3.0192969 18.667969 3.5292969 L 18.601562 3.6855469 C 18.419563 4.1245469 17.950328 4.3892031 17.486328 4.2832031 C 17.262328 4.2322031 17.035641 4.1873906 16.806641 4.1503906 C 16.336641 4.0753906 16 3.649875 16 3.171875 L 16 3 C 16 2.448 15.552 2 15 2 z M 14 7.0683594 L 14 11 A 1.0001 1.0001 0 0 0 14.009766 11.138672 C 13.291783 11.322608 12.649499 11.689939 12.146484 12.203125 A 1.0001 1.0001 0 0 0 12.035156 12.134766 L 8.6328125 10.169922 C 9.9033273 8.4979993 11.812341 7.3417694 14 7.0683594 z M 16 7.0683594 C 18.187659 7.3417694 20.096673 8.4979993 21.367188 10.169922 L 17.964844 12.134766 A 1.0001 1.0001 0 0 0 17.853516 12.203125 C 17.350927 11.690373 16.709431 11.322781 15.992188 11.138672 A 1.0001 1.0001 0 0 0 16 11 L 16 7.0683594 z M 7.625 11.896484 L 11.035156 13.865234 A 1.0001 1.0001 0 0 0 11.162109 13.931641 C 11.066899 14.273682 11 14.627626 11 15 C 11 15.373234 11.068427 15.727567 11.164062 16.070312 A 1.0001 1.0001 0 0 0 11.035156 16.134766 L 7.625 18.103516 C 7.222729 17.149001 7 16.100789 7 15 C 7 13.899211 7.222729 12.850999 7.625 11.896484 z M 22.375 11.896484 C 22.777271 12.850999 23 13.899211 23 15 C 23 16.100789 22.777271 17.149001 22.375 18.103516 L 18.964844 16.134766 A 1.0001 1.0001 0 0 0 18.835938 16.070312 C 18.931573 15.727567 19 15.373234 19 15 C 19 14.628282 18.932777 14.275097 18.837891 13.933594 A 1.0001 1.0001 0 0 0 18.964844 13.865234 L 22.375 11.896484 z M 15 13.5 C 15.828 13.5 16.5 14.172 16.5 15 C 16.5 15.828 15.828 16.5 15 16.5 C 14.172 16.5 13.5 15.828 13.5 15 C 13.5 14.172 14.172 13.5 15 13.5 z M 12.142578 17.792969 C 12.646174 18.308155 13.28995 18.676922 14.009766 18.861328 A 1.0001 1.0001 0 0 0 14 19 L 14 22.931641 C 11.812341 22.658231 9.9033273 21.502001 8.6328125 19.830078 L 12.035156 17.865234 A 1.0001 1.0001 0 0 0 12.142578 17.792969 z M 17.857422 17.792969 A 1.0001 1.0001 0 0 0 17.964844 17.865234 L 21.367188 19.830078 C 20.096673 21.502001 18.187659 22.658231 16 22.931641 L 16 19 A 1.0001 1.0001 0 0 0 15.990234 18.861328 C 16.71005 18.676922 17.353826 18.308155 17.857422 17.792969 z"/>
</svg>
