<svg xmlns="http://www.w3.org/2000/svg" viewBox="0 0 30 30">
    <path
        d="M 11 2 L 10.498047 5.4902344 L 8.1328125 9.8945312 C 7.4358125 11.191531 6.082375 12 4.609375 12 L 4 12 L 4 25 L 6 25 C 7.281 26.281 9.017125 27 10.828125 27 L 21 27 A 2 2 0 0 0 23 25 L 23 23.945312 A 2.5 2.5 0 0 0 25 21.5 A 2.5 2.5 0 0 0 24.367188 19.841797 A 2.5 2.5 0 0 0 26 17.5 A 2.5 2.5 0 0 0 24.996094 15.5 A 2.5 2.5 0 0 0 26 13.5 A 2.5 2.5 0 0 0 23.5 11 L 14 11 C 14 11 15 7.734 15 7 C 15 4.749 15 2 12 2 L 11 2 z"/>
</svg>
