<svg xmlns="http://www.w3.org/2000/svg" viewBox="0 0 30 30">
    <path
        d="M 15 2 A 1 1 0 0 0 14 3 A 1 1 0 0 0 15 4 A 1 1 0 0 0 16 3 A 1 1 0 0 0 15 2 z M 15 6 A 1 1 0 0 0 14 7 A 1 1 0 0 0 15 8 A 1 1 0 0 0 16 7 A 1 1 0 0 0 15 6 z M 14.984375 9.9863281 A 1.0001 1.0001 0 0 0 14 11 L 14 18.585938 L 11.707031 16.292969 A 1.0001 1.0001 0 0 0 10.990234 15.990234 A 1.0001 1.0001 0 0 0 10.292969 17.707031 L 15 22.414062 L 19.707031 17.707031 A 1.0001 1.0001 0 1 0 18.292969 16.292969 L 16 18.585938 L 16 11 A 1.0001 1.0001 0 0 0 14.984375 9.9863281 z M 3.984375 17.986328 A 1.0001 1.0001 0 0 0 3 19 L 3 25 C 3 26.093063 3.9069372 27 5 27 L 25 27 C 26.093063 27 27 26.093063 27 25 L 27 19 A 1.0001 1.0001 0 1 0 25 19 L 25 25 L 5 25 L 5 19 A 1.0001 1.0001 0 0 0 3.984375 17.986328 z"/>
</svg>
